<svg preserveAspectRatio="none" width="100%" height="100%" overflow="visible" style="display: block;" viewBox="0 0 25 25" fill="none" xmlns="http://www.w3.org/2000/svg">
<g id="tabler:bulb">
<path id="Vector" d="M3.125 12.5H4.16667M12.5 3.125V4.16667M20.8333 12.5H21.875M5.83333 5.83333L6.5625 6.5625M19.1667 5.83333L18.4375 6.5625M10.1042 17.7083H14.8958M9.375 16.6667C8.50049 16.0108 7.85451 15.0964 7.52858 14.053C7.20264 13.0095 7.21326 11.89 7.55894 10.853C7.90462 9.81594 8.56783 8.91395 9.45463 8.27478C10.3414 7.63561 11.4069 7.29167 12.5 7.29167C13.5931 7.29167 14.6586 7.63561 15.5454 8.27478C16.4322 8.91395 17.0954 9.81594 17.4411 10.853C17.7867 11.89 17.7974 13.0095 17.4714 14.053C17.1455 15.0964 16.4995 16.0108 15.625 16.6667C15.2183 17.0693 14.9121 17.5619 14.7311 18.1048C14.5502 18.6477 14.4995 19.2256 14.5833 19.7917C14.5833 20.3442 14.3638 20.8741 13.9731 21.2648C13.5824 21.6555 13.0525 21.875 12.5 21.875C11.9475 21.875 11.4176 21.6555 11.0269 21.2648C10.6362 20.8741 10.4167 20.3442 10.4167 19.7917C10.5005 19.2256 10.4498 18.6477 10.2689 18.1048C10.0879 17.5619 9.7817 17.0693 9.375 16.6667Z" stroke="var(--stroke-0, white)" stroke-width="1.5" stroke-linecap="round" stroke-linejoin="round"/>
</g>
</svg>
