<svg preserveAspectRatio="none" width="100%" height="100%" overflow="visible" style="display: block;" viewBox="0 0 24 24" fill="none" xmlns="http://www.w3.org/2000/svg">
<g id="free-icon-chatbot-2068998 1 [Vectorized]" clip-path="url(#clip0_278_3037)">
<path id="Vector" d="M11.7465 0H21.4159L21.4304 0.00721216C21.607 0.0930225 21.9396 0.142384 22.129 0.22952C22.9095 0.588469 23.5005 1.16278 23.8001 1.97665C23.8683 2.16256 23.9402 2.49138 24 2.63416V8.68638L23.993 8.70319C23.9027 8.91879 23.8568 9.216 23.7628 9.43315C23.4459 10.1671 22.8342 10.7662 22.0993 11.0751C21.6465 11.2654 20.9783 11.3674 20.4985 11.2945C20.7359 11.8116 20.8639 12.1336 21.0151 12.6892C21.9372 12.7007 22.6929 12.6212 23.4019 13.3444C23.7846 13.7347 23.8245 14.0131 24 14.4891V17.9698C23.9252 18.1484 23.862 18.3921 23.7846 18.5513C23.5519 19.0306 23.1521 19.3721 22.6733 19.5835C22.2971 19.7496 21.4178 19.8191 21.0316 19.7439C20.4541 21.7551 19.269 23.1948 17.1936 23.8078C16.9492 23.88 16.6286 23.9072 16.3991 24H7.62762C7.5424 23.9616 7.06502 23.8634 6.94092 23.8341C6.42157 23.7141 5.92526 23.5099 5.47151 23.2302C4.14818 22.4251 3.34139 21.2438 2.97961 19.7534C1.83572 19.7776 0.818805 19.7278 0.213263 18.5614C0.125729 18.3928 0.0911857 18.1606 0 18.0008V14.4215C0.0885921 14.2863 0.132687 14.0255 0.225878 13.8543C0.490104 13.3687 0.894902 12.9766 1.43363 12.8206C1.47052 12.475 1.45018 11.6681 1.45033 11.2949L1.44769 8.37305C0.39398 7.97398 -0.17728 6.88148 0.13078 5.79209C0.281998 5.25441 0.641421 4.79925 1.12939 4.52752C1.6201 4.2566 2.19852 4.19238 2.7367 4.34904C3.28343 4.5083 3.74367 4.87978 4.01475 5.38057C4.27521 5.8702 4.33324 6.44245 4.17637 6.97441C3.95836 7.70566 3.49617 8.04898 2.86341 8.39027C2.84695 8.82525 2.85926 9.34624 2.85928 9.78598L2.86029 12.328C2.86052 12.4545 2.83725 12.6227 2.9186 12.7037C3.02128 12.6677 3.09635 12.2906 3.14487 12.1485C3.41639 11.3388 3.87764 10.6057 4.49016 10.0104C5.4023 9.11644 6.57281 8.59838 7.84317 8.49689C8.25602 8.46391 8.76731 8.47795 9.18403 8.48152C9.21019 7.18695 9.17175 5.8638 9.18757 4.56656C9.19809 3.97345 9.16582 3.36623 9.20623 2.77521C9.27998 1.69623 10.0088 0.665222 11.0116 0.253699C11.2441 0.158322 11.5136 0.104321 11.7305 0.00731752L11.7465 0ZM17.1729 22.3231C18.0717 22.0074 18.9234 21.1926 19.3353 20.3374C19.5226 19.9469 19.6452 19.5285 19.6982 19.0987C19.745 18.7184 19.7329 18.3101 19.7328 17.9252L19.7316 16.3397L19.7321 14.6593C19.7325 14.2909 19.7431 13.8725 19.7113 13.5104C19.681 13.1787 19.6095 12.852 19.4985 12.5381C19.3609 12.15 19.0858 11.6264 18.7997 11.3263C17.6027 11.2991 16.401 11.319 15.2034 11.3189C14.7164 11.3189 13.1138 11.2612 12.7691 11.3685C12.5121 11.4486 12.2614 11.5981 12.0214 11.7186L10.7537 12.3597C10.5164 12.4809 10.2237 12.656 9.96455 12.6988C9.59573 12.7597 9.22371 12.4692 9.20046 12.0906C9.15619 11.3696 9.20569 10.6346 9.18649 9.91188C8.79841 9.92536 8.40185 9.90415 8.02027 9.92599C6.99272 9.95264 6.05292 10.4042 5.34827 11.1466C4.88611 11.6351 4.55726 12.2343 4.39331 12.8865C4.24929 13.4655 4.26183 13.9859 4.26471 14.5753C4.27137 15.9382 4.25796 17.302 4.26825 18.6649C4.27634 19.7375 4.74169 20.7743 5.51855 21.5048C6.03347 21.9933 6.6708 22.3337 7.36322 22.4899C7.9571 22.6228 8.67628 22.5943 9.29416 22.5939L11.2204 22.5926L14.1702 22.5935C15.0679 22.5939 16.3702 22.6757 17.1729 22.3231ZM22.3649 18.1325C22.4488 18.036 22.5418 17.9199 22.5621 17.7849C22.6082 17.4783 22.5966 17.1575 22.5957 16.8456C22.5938 16.1751 22.6052 15.5017 22.5864 14.8314C22.5808 14.63 22.4989 14.4068 22.338 14.2768C22.0323 14.0302 21.5392 14.1795 21.1463 14.1255C21.138 15.1029 21.1361 16.0803 21.1407 17.0576C21.141 17.4545 21.1522 17.9196 21.1374 18.3103C21.5801 18.3267 22.0163 18.4077 22.3649 18.1325ZM2.33282 7.04857C2.70401 6.95056 2.92559 6.5703 2.82783 6.19903C2.73009 5.82776 2.35001 5.60592 1.97866 5.7034C1.60695 5.80099 1.38483 6.18155 1.48268 6.55319C1.58052 6.92482 1.96124 7.14668 2.33282 7.04857ZM2.85619 18.3299C2.85377 16.9418 2.87468 15.5141 2.8512 14.1296C2.62116 14.1339 2.18809 14.1548 1.97354 14.1407C1.64279 14.1997 1.44323 14.4298 1.42097 14.7674C1.40299 15.1979 1.39797 15.6461 1.40645 16.0771C1.41754 16.6403 1.37122 17.2239 1.44039 17.7806C1.49734 18.239 1.93862 18.3281 2.32217 18.3254C2.4882 18.3257 2.69344 18.3207 2.85619 18.3299ZM19.9805 9.88582C20.7511 9.88995 21.519 9.99949 22.0911 9.41562C22.5701 8.9268 22.5933 8.52241 22.5945 7.869L22.5949 4.66948C22.5949 4.24863 22.5958 3.8224 22.5946 3.40284C22.593 2.79394 22.5584 2.352 22.1183 1.89917C21.619 1.38536 21.0553 1.41391 20.3883 1.41321L15.0902 1.41309C14.192 1.41313 13.1762 1.39001 12.2895 1.41648C11.4379 1.48039 10.7739 1.85711 10.6208 2.79265C10.56 3.16371 10.594 3.66492 10.594 4.05141L10.5945 6.31019L10.595 9.25364C10.5949 9.67669 10.5737 10.419 10.6066 10.8239C10.6072 10.8319 10.608 10.84 10.6088 10.848L11.7303 10.284C12.5852 9.85395 12.5433 9.87867 13.5064 9.88291L14.7756 9.88727L17.3781 9.88655L19.9805 9.88582Z" fill="#D4FF3F"/>
<path id="Vector_2" d="M10.4981 18.3332C10.9458 18.3088 13.4166 18.2651 13.689 18.3948C13.8592 18.4758 14.0002 18.6104 14.064 18.7904C14.1271 18.9685 14.1119 19.1906 14.0267 19.3595C13.925 19.5612 13.7251 19.6673 13.5206 19.7371C13.1274 19.7792 12.4808 19.7613 12.0766 19.7586C11.6441 19.7557 10.5745 19.827 10.2515 19.6466C10.0867 19.5548 9.96506 19.4012 9.91355 19.2197C9.79059 18.7825 10.0806 18.4335 10.4981 18.3332Z" fill="#D4FF3F"/>
<path id="Vector_3" d="M15.4207 14.1139C15.5492 14.1029 15.6731 14.1235 15.7938 14.169C15.952 14.2286 16.071 14.3554 16.1385 14.5087C16.2575 14.779 16.2674 16.2238 16.1537 16.5015C16.0565 16.7391 15.8532 16.8384 15.6302 16.9292C14.6705 17.0263 14.8074 15.9725 14.8126 15.363C14.8177 14.7792 14.7196 14.2889 15.4207 14.1139Z" fill="#D4FF3F"/>
<path id="Vector_4" d="M8.38943 14.1138C8.51796 14.103 8.64187 14.1236 8.76253 14.169C8.92076 14.2286 9.03977 14.3554 9.10725 14.5087C9.22629 14.7791 9.23611 16.2237 9.12241 16.5015C9.02522 16.7391 8.82199 16.8384 8.59894 16.9292C7.44591 17.0461 7.84242 15.4433 7.7928 14.7467C7.76962 14.4212 8.07954 14.1913 8.38943 14.1138Z" fill="#D4FF3F"/>
<path id="Vector_5" d="M12.6765 3.57108C13.0628 3.54565 13.5747 3.56069 13.9748 3.56048L16.3019 3.55997L18.913 3.56037C19.2979 3.56053 20.5258 3.51513 20.7821 3.65749C20.9447 3.74859 21.064 3.90091 21.1136 4.08049C21.2331 4.51266 20.9483 4.86347 20.5343 4.96451C20.1068 4.99315 19.5424 4.9785 19.1083 4.97866L16.6801 4.97916L14.1683 4.97927C13.7846 4.97934 12.6482 5.03768 12.3652 4.85993C12.2068 4.75851 12.0961 4.59731 12.0584 4.41305C11.9645 3.97303 12.2576 3.64973 12.6765 3.57108Z" fill="#D4FF3F"/>
<path id="Vector_6" d="M12.6769 6.38355C13.0628 6.3581 13.575 6.37319 13.9747 6.37301L16.3019 6.37247L18.913 6.37289C19.2979 6.37305 20.5257 6.32768 20.7821 6.46999C20.9446 6.56112 21.064 6.71341 21.1136 6.89301C21.2332 7.32558 20.948 7.67641 20.5335 7.77696C20.1096 7.80546 19.5484 7.79083 19.1182 7.791L16.6965 7.79142L14.1808 7.79149C13.7926 7.79154 12.6475 7.84999 12.3652 7.6724C12.2068 7.57097 12.0961 7.40983 12.0583 7.22557C11.9644 6.78522 12.2579 6.46212 12.6769 6.38355Z" fill="#D4FF3F"/>
</g>
<defs>
<clipPath id="clip0_278_3037">
<rect width="24" height="24" fill="white"/>
</clipPath>
</defs>
</svg>
