<svg width="23" height="23" viewBox="0 0 23 23" fill="none" xmlns="http://www.w3.org/2000/svg">
<path d="M21 6.89355C20.9999 3.96208 18.9558 2 16.6748 2C15.3453 2.00007 13.9832 2.68664 13.0713 3.84473L11.5 5.83984L9.92871 3.84473C9.01676 2.68664 7.65469 2.00007 6.3252 2C4.04416 2 2.00008 3.96208 2 6.89355C2 8.65293 2.71128 10.3854 4.29492 12.4971C5.90438 14.6432 8.2406 16.9601 11.2383 19.9229L11.2412 19.9258L11.5 20.1816L11.7588 19.9258L11.7617 19.9229C14.7594 16.9601 17.0956 14.6432 18.7051 12.4971C20.2887 10.3854 21 8.65293 21 6.89355ZM22.9883 7.33398C22.7535 11.8628 18.9054 15.6752 13.168 21.3457L11.5 23L9.83203 21.3457C3.90961 15.4924 0 11.6189 0 6.89355C8.52292e-05 3.02062 2.78325 0 6.3252 0L6.69922 0.0117188C8.56353 0.129121 10.3249 1.11512 11.5 2.60742C12.7535 1.01565 14.6739 6.59458e-05 16.6748 0C20.2168 0 22.9999 3.02062 23 6.89355L22.9883 7.33398Z" fill="white"/>
</svg>
