<svg width="23" height="23" viewBox="0 0 23 23" fill="none" xmlns="http://www.w3.org/2000/svg">
<path d="M11.5 0C5.3567 0 0 5.07151 0 10.925C0 16.6796 5.23595 21.2083 11.5 21.2083C12.8398 21.2092 14.1712 20.9973 15.4445 20.5804C15.9781 21.0979 16.161 21.2739 17.2937 22.3664C18.1102 22.9828 18.8784 23.1921 19.5649 22.8034C20.2573 22.4124 20.4654 21.6511 20.324 20.6483L19.864 17.9814C21.8615 16.1023 23 13.6183 23 10.925C23 5.07151 17.6445 0 11.5 0ZM11.5 1.61C16.7739 1.61 21.39 5.98001 21.39 10.925C21.39 13.2768 20.3412 15.4422 18.492 17.0545L18.469 17.0741L18.1274 17.3708L18.2045 17.8193L18.3632 18.7439L18.4058 18.99L18.7335 20.8967C18.7523 21.0251 18.7638 21.1545 18.768 21.2842V21.3935C18.768 21.3988 18.7703 21.4027 18.7703 21.4027C18.7622 21.3912 18.6059 21.3417 18.3379 21.1462L15.8424 18.7243L15.3663 18.9037C14.1295 19.3649 12.82 19.6006 11.5 19.5995C6.0766 19.5995 1.61 15.7355 1.61 10.925C1.61 5.98116 6.2261 1.61 11.5 1.61ZM16.9889 8.98496C16.7573 8.9765 16.5263 9.01482 16.3097 9.09764C16.0932 9.18046 15.8956 9.30608 15.7287 9.46699C15.5618 9.6279 15.429 9.8208 15.3384 10.0342C15.2477 10.2475 15.201 10.477 15.201 10.7088C15.201 10.9406 15.2477 11.1701 15.3384 11.3835C15.429 11.5968 15.5618 11.7897 15.7287 11.9506C15.8956 12.1116 16.0932 12.2372 16.3097 12.32C16.5263 12.4028 16.7573 12.4411 16.9889 12.4327C17.4352 12.4164 17.8578 12.2276 18.1678 11.9061C18.4778 11.5846 18.651 11.1554 18.651 10.7088C18.651 10.2622 18.4778 9.83303 18.1678 9.51153C17.8578 9.19003 17.4352 9.00127 16.9889 8.98496ZM11.2413 8.98496C11.0096 8.9765 10.7786 9.01482 10.562 9.09764C10.3455 9.18046 10.1479 9.30608 9.98099 9.46699C9.81409 9.6279 9.68134 9.8208 9.59067 10.0342C9.5 10.2475 9.45327 10.477 9.45327 10.7088C9.45327 10.9406 9.5 11.1701 9.59067 11.3835C9.68134 11.5968 9.81409 11.7897 9.98099 11.9506C10.1479 12.1116 10.3455 12.2372 10.562 12.32C10.7786 12.4028 11.0096 12.4411 11.2413 12.4327C11.6875 12.4164 12.1101 12.2276 12.4201 11.9061C12.7301 11.5846 12.9033 11.1554 12.9033 10.7088C12.9033 10.2622 12.7301 9.83303 12.4201 9.51153C12.1101 9.19003 11.6875 9.00127 11.2413 8.98496ZM5.4947 8.98496C5.26302 8.9765 5.03202 9.01482 4.81548 9.09764C4.59895 9.18046 4.40133 9.30608 4.23444 9.46699C4.06754 9.6279 3.93479 9.8208 3.84412 10.0342C3.75345 10.2475 3.70672 10.477 3.70672 10.7088C3.70672 10.9406 3.75345 11.1701 3.84412 11.3835C3.93479 11.5968 4.06754 11.7897 4.23444 11.9506C4.40133 12.1116 4.59895 12.2372 4.81548 12.32C5.03202 12.4028 5.26302 12.4411 5.4947 12.4327C5.941 12.4164 6.36358 12.2276 6.67355 11.9061C6.98352 11.5846 7.15672 11.1554 7.15672 10.7088C7.15672 10.2622 6.98352 9.83303 6.67355 9.51153C6.36358 9.19003 5.941 9.00127 5.4947 8.98496Z" fill="white"/>
</svg>
