<svg width="72" height="72" viewBox="0 0 72 72" fill="none" xmlns="http://www.w3.org/2000/svg">
<rect x="0.75" y="0.75" width="70.5" height="70.5" rx="35.25" fill="#1C1C1F"/>
<rect x="0.75" y="0.75" width="70.5" height="70.5" rx="35.25" stroke="#D6FF1E" stroke-width="1.5"/>
<g clip-path="url(#clip0_552_572)">
<path d="M35.5142 13H54.0472L54.075 13.0138C54.4133 13.1783 55.0508 13.2729 55.414 13.4399C56.9099 14.1279 58.0427 15.2287 58.6168 16.7886C58.7475 17.1449 58.8854 17.7752 59 18.0488V29.6489L58.9865 29.6811C58.8136 30.0943 58.7255 30.664 58.5454 31.0802C57.938 32.487 56.7655 33.6353 55.3571 34.2272C54.489 34.5921 53.2084 34.7875 52.2888 34.6479C52.7437 35.6389 52.9892 36.2561 53.279 37.321C55.0462 37.343 56.4947 37.1907 57.8536 38.5769C58.5872 39.3249 58.6635 39.8584 59 40.7707V47.4421C58.8567 47.7844 58.7354 48.2516 58.5872 48.5566C58.1411 49.4753 57.3748 50.13 56.4572 50.5351C55.7361 50.8535 54.0507 50.9866 53.3105 50.8424C52.2036 54.6973 49.9322 57.4566 45.9543 58.6316C45.4861 58.77 44.8716 58.8221 44.4317 59H27.6196C27.4563 58.9263 26.5413 58.7381 26.3034 58.682C25.308 58.452 24.3567 58.0607 23.4871 57.5245C20.9507 55.9815 19.4043 53.7172 18.7109 50.8607C16.5185 50.9071 14.5694 50.8116 13.4088 48.576C13.241 48.2528 13.1748 47.8078 13 47.5015V40.6411C13.1698 40.3821 13.2543 39.8822 13.4329 39.554C13.9394 38.6233 14.7152 37.8719 15.7478 37.5728C15.8185 36.9104 15.7795 35.3639 15.7798 34.6486L15.7747 29.0483C13.7551 28.2835 12.6602 26.1895 13.2507 24.1015C13.5405 23.0709 14.2294 22.1986 15.1647 21.6777C16.1052 21.1585 17.2138 21.0354 18.2453 21.3357C19.2932 21.6409 20.1754 22.3529 20.6949 23.3128C21.1942 24.2512 21.3054 25.348 21.0047 26.3676C20.5869 27.7692 19.701 28.4272 18.4882 29.0814C18.4567 29.9151 18.4802 30.9136 18.4803 31.7565L18.4822 36.6287C18.4827 36.8712 18.4381 37.1935 18.594 37.3488C18.7908 37.2798 18.9347 36.557 19.0277 36.2847C19.5481 34.7326 20.4321 33.3275 21.6061 32.1866C23.3544 30.4732 25.5979 29.4802 28.0327 29.2857C28.824 29.2225 29.804 29.2494 30.6027 29.2562C30.6529 26.775 30.5792 24.239 30.6095 21.7526C30.6297 20.6158 30.5678 19.4519 30.6453 18.3192C30.7866 16.2511 32.1835 14.275 34.1056 13.4863C34.5511 13.3035 35.0676 13.1999 35.4834 13.014L35.5142 13ZM45.9148 55.7859C47.6374 55.1808 49.2698 53.6191 50.0594 51.98C50.4183 51.2316 50.6532 50.4297 50.7549 49.6058C50.8446 48.8769 50.8215 48.0943 50.8211 47.3567L50.8189 44.3178L50.8199 41.097C50.8206 40.391 50.8409 39.5889 50.78 38.8949C50.722 38.2591 50.585 37.6331 50.3721 37.0313C50.1083 36.2874 49.5811 35.2839 49.0327 34.7087C46.7384 34.6567 44.4352 34.6947 42.1398 34.6946C41.2064 34.6946 38.1347 34.5839 37.4741 34.7897C36.9815 34.9432 36.501 35.2297 36.0411 35.4606L33.6113 36.6895C33.1565 36.9218 32.5954 37.2573 32.0987 37.3393C31.3918 37.4561 30.6788 36.8992 30.6342 36.1737C30.5494 34.7918 30.6442 33.383 30.6074 31.9978C29.8636 32.0236 29.1035 31.983 28.3722 32.0248C26.4027 32.0759 24.6014 32.9413 23.2509 34.3643C22.365 35.3007 21.7347 36.449 21.4205 37.699C21.1445 38.8088 21.1685 39.8063 21.174 40.9359C21.1868 43.5483 21.1611 46.1622 21.1808 48.7744C21.1963 50.8302 22.0882 52.8174 23.5772 54.2175C24.5641 55.1539 25.7857 55.8062 27.1128 56.1056C28.2511 56.3603 29.6295 56.3058 30.8138 56.305L34.5058 56.3026L40.1595 56.3043C41.8802 56.3049 44.3762 56.4618 45.9148 55.7859ZM55.866 47.754C56.0269 47.5689 56.2051 47.3465 56.244 47.0877C56.3323 46.5 56.3101 45.8852 56.3084 45.2874C56.3049 44.0023 56.3266 42.7116 56.2906 41.4269C56.2798 41.0408 56.1228 40.6129 55.8145 40.3639C55.2286 39.8913 54.2835 40.1774 53.5304 40.0739C53.5144 41.9472 53.5109 43.8205 53.5197 45.6938C53.5202 46.4544 53.5417 47.3458 53.5134 48.0948C54.3619 48.1261 55.1979 48.2815 55.866 47.754ZM17.4712 26.5098C18.1827 26.3219 18.6074 25.5931 18.42 24.8815C18.2327 24.1699 17.5042 23.7447 16.7924 23.9315C16.08 24.1186 15.6543 24.848 15.8418 25.5603C16.0293 26.2726 16.759 26.6978 17.4712 26.5098ZM18.4744 48.1323C18.4697 45.4717 18.5098 42.7353 18.4648 40.0816C18.0239 40.09 17.1938 40.13 16.7826 40.103C16.1487 40.216 15.7662 40.6571 15.7235 41.3041C15.6891 42.1292 15.6794 42.9884 15.6957 43.8145C15.7169 44.8938 15.6282 46.0125 15.7607 47.0795C15.8699 47.9581 16.7157 48.1289 17.4508 48.1237C17.769 48.1243 18.1624 48.1146 18.4744 48.1323ZM51.2959 31.9478C52.773 31.9557 54.2448 32.1657 55.3413 31.0466C56.2593 30.1097 56.3039 29.3346 56.306 28.0822L56.307 21.9498C56.3068 21.1432 56.3085 20.3263 56.3063 19.5221C56.3032 18.355 56.2369 17.508 55.3934 16.6401C54.4363 15.6553 53.356 15.71 52.0775 15.7086L41.9229 15.7084C40.2014 15.7085 38.2544 15.6642 36.5549 15.7149C34.9226 15.8374 33.6499 16.5595 33.3565 18.3526C33.2401 19.0638 33.3052 20.0244 33.3051 20.7652L33.3062 25.0945L33.3072 30.7361C33.3069 31.547 33.2662 32.9698 33.3293 33.7457C33.3306 33.7612 33.332 33.7766 33.3336 33.792L35.483 32.7111C37.1217 31.8867 37.0413 31.9341 38.8873 31.9423L41.32 31.9506L46.3079 31.9492L51.2959 31.9478Z" fill="#D6FF1E"/>
<path d="M33.1214 48.1389C33.9794 48.0922 38.715 48.0086 39.2372 48.2571C39.5634 48.4123 39.8337 48.6703 39.956 49.0153C40.0769 49.3567 40.0476 49.7824 39.8844 50.1061C39.6895 50.4927 39.3064 50.6961 38.9144 50.8298C38.1608 50.9105 36.9215 50.8761 36.1468 50.8709C35.3177 50.8654 33.2676 51.0021 32.6487 50.6563C32.3327 50.4804 32.0996 50.1861 32.0009 49.8381C31.7652 49.0002 32.321 48.3311 33.1214 48.1389Z" fill="#D6FF1E"/>
<path d="M42.5558 40.0514C42.8022 40.0305 43.0397 40.0699 43.2709 40.157C43.5742 40.2713 43.8023 40.5144 43.9317 40.8082C44.1598 41.3263 44.1787 44.0955 43.9608 44.6278C43.7745 45.0831 43.3849 45.2734 42.9574 45.4474C41.1181 45.6336 41.3803 43.6138 41.3904 42.4455C41.4001 41.3267 41.2121 40.3868 42.5558 40.0514Z" fill="#D6FF1E"/>
<path d="M29.0794 40.0514C29.3258 40.0306 29.5633 40.07 29.7946 40.1571C30.0978 40.2714 30.3259 40.5144 30.4553 40.8081C30.6834 41.3264 30.7023 44.0953 30.4843 44.6278C30.298 45.0831 29.9085 45.2734 29.481 45.4474C27.271 45.6715 28.031 42.5995 27.9359 41.2644C27.8915 40.6404 28.4855 40.1999 29.0794 40.0514Z" fill="#D6FF1E"/>
<path d="M37.2965 19.845C38.0371 19.7963 39.0181 19.8251 39.7849 19.8247L44.2452 19.8237L49.2499 19.8245C49.9876 19.8248 52.341 19.7378 52.8324 20.0106C53.1439 20.1852 53.3726 20.4772 53.4677 20.8214C53.6967 21.6497 53.1509 22.3221 52.3574 22.5157C51.5379 22.5706 50.4561 22.5426 49.6243 22.5429L44.9701 22.5438L40.1559 22.544C39.4205 22.5442 37.2424 22.656 36.6999 22.3153C36.3963 22.1209 36.1842 21.812 36.1118 21.4588C35.9319 20.6154 36.4937 19.9958 37.2965 19.845Z" fill="#D6FF1E"/>
<path d="M37.2973 25.2355C38.0371 25.1867 39.0189 25.2157 39.7849 25.2153L44.2453 25.2143L49.25 25.2151C49.9877 25.2154 52.3409 25.1284 52.8325 25.4012C53.1439 25.5759 53.3727 25.8678 53.4677 26.212C53.697 27.0411 53.1503 27.7135 52.3559 27.9062C51.5434 27.9609 50.4677 27.9328 49.6433 27.9331L45.0017 27.9339L40.1798 27.9341C39.4358 27.9342 37.2411 28.0462 36.7 27.7058C36.3964 27.5114 36.1843 27.2026 36.1118 26.8494C35.9318 26.0054 36.4943 25.3861 37.2973 25.2355Z" fill="#D6FF1E"/>
</g>
<defs>
<clipPath id="clip0_552_572">
<rect width="46" height="46" fill="white" transform="translate(13 13)"/>
</clipPath>
</defs>
</svg>
