<svg width="18" height="23" viewBox="0 0 18 23" fill="none" xmlns="http://www.w3.org/2000/svg">
<path d="M17.7971 4.20516L17.7119 4.31089L14.7236 7.33173C14.5918 7.46553 14.4152 7.54459 14.2287 7.55332C14.0421 7.56205 13.8591 7.49982 13.7156 7.3789C13.5722 7.25797 13.4788 7.08713 13.4538 6.90003C13.4288 6.71293 13.474 6.52315 13.5805 6.36808L13.6657 6.26235L15.3765 4.53292L3.73539 4.53141C3.17824 4.53144 2.64107 4.74124 2.22864 5.1199C1.8162 5.49856 1.55807 6.01893 1.50458 6.57954L1.49413 6.79704L1.49413 11.3283C1.49447 11.517 1.4249 11.699 1.29912 11.8385C1.17335 11.978 1.00047 12.0648 0.814542 12.0818C0.628614 12.0989 0.443107 12.0449 0.294553 11.9306C0.145999 11.8163 0.0451636 11.65 0.0119033 11.4642L-5.19936e-05 11.3283L-5.17955e-05 6.79704C-0.000198619 5.83835 0.360393 4.91549 1.00858 4.21566C1.65676 3.51583 2.54401 3.09143 3.49035 3.02854L3.73539 3.02099L15.3795 3.0225L13.6657 1.29004C13.5422 1.1649 13.466 0.999905 13.4504 0.823814C13.4349 0.647724 13.4809 0.471694 13.5805 0.326393L13.6657 0.220663C13.7895 0.0957888 13.9527 0.0187773 14.1269 0.00304506C14.3011 -0.0126872 14.4752 0.0338571 14.619 0.134569L14.7236 0.220663L17.7119 3.24151C17.8355 3.36666 17.9116 3.53165 17.9272 3.70774C17.9428 3.88383 17.8967 4.05986 17.7971 4.20516ZM17.9301 16.203C17.9302 17.1617 17.5696 18.0846 16.9215 18.7844C16.2733 19.4842 15.386 19.9086 14.4397 19.9715L14.1946 19.9791L2.55051 19.9776L4.26433 21.71C4.38786 21.8352 4.46405 22.0001 4.47961 22.1762C4.49517 22.3523 4.44913 22.5284 4.3495 22.6737L4.26433 22.7794C4.14053 22.9043 3.97731 22.9813 3.80312 22.997C3.62892 23.0127 3.45478 22.9662 3.31105 22.8655L3.20645 22.7794L0.218099 19.7585C0.0945674 19.6334 0.0183841 19.4684 0.00282013 19.2923C-0.0127419 19.1162 0.0333015 18.9402 0.13293 18.7949L0.218099 18.6892L3.20645 15.6683C3.33822 15.5345 3.51479 15.4555 3.70136 15.4467C3.88793 15.438 4.07097 15.5002 4.2144 15.6212C4.35783 15.7421 4.45126 15.9129 4.47627 16.1C4.50127 16.2871 4.45605 16.4769 4.3495 16.632L4.26433 16.7377L2.5535 18.4671L14.1946 18.4686C14.7518 18.4686 15.289 18.2588 15.7014 17.8801C16.1138 17.5015 16.372 16.9811 16.4254 16.4205L16.4359 16.203L16.4359 11.6717C16.4356 11.483 16.5051 11.301 16.6309 11.1615C16.7567 11.0221 16.9296 10.9353 17.1155 10.9182C17.3014 10.9012 17.4869 10.9551 17.6355 11.0694C17.784 11.1837 17.8849 11.3501 17.9181 11.5358L17.9301 11.6717L17.9301 16.203Z" fill="white"/>
</svg>
