<svg preserveAspectRatio="none" width="100%" height="100%" overflow="visible" style="display: block;" viewBox="0 0 16.0001 17.9281" fill="none" xmlns="http://www.w3.org/2000/svg">
<g id="Group 1707482668">
<path id="Vector" d="M2.80769 17.4281C4.0822 17.4281 5.11538 16.2473 5.11538 14.7907C5.11538 13.3342 4.0822 12.1534 2.80769 12.1534C1.53319 12.1534 0.5 13.3342 0.5 14.7907C0.5 16.2473 1.53319 17.4281 2.80769 17.4281Z" stroke="var(--stroke-0, white)" stroke-linecap="round" stroke-linejoin="round"/>
<path id="Vector_2" d="M13.1923 14.1314C14.4668 14.1314 15.5 12.9506 15.5 11.4941C15.5 10.0375 14.4668 8.85669 13.1923 8.85669C11.9178 8.85669 10.8846 10.0375 10.8846 11.4941C10.8846 12.9506 11.9178 14.1314 13.1923 14.1314Z" stroke="var(--stroke-0, white)" stroke-linecap="round" stroke-linejoin="round"/>
<path id="Vector_3" d="M15.5 11.4941V1.15564C15.4995 1.05475 15.4788 0.955341 15.4393 0.865056C15.4 0.774771 15.343 0.696025 15.2727 0.634881C15.2025 0.573736 15.121 0.531823 15.0343 0.512371C14.9477 0.492919 14.8583 0.496445 14.7731 0.522678L5.54231 3.45015C5.42032 3.48769 5.3125 3.56994 5.23537 3.68428C5.15825 3.79864 5.11609 3.93875 5.11538 4.08312V14.7909" stroke="var(--stroke-0, white)" stroke-linecap="round" stroke-linejoin="round"/>
<path id="Vector_4" d="M5.11538 7.53801L15.5 4.2413" stroke="var(--stroke-0, white)" stroke-linecap="round" stroke-linejoin="round"/>
</g>
</svg>
