<svg preserveAspectRatio="none" width="100%" height="100%" overflow="visible" style="display: block;" viewBox="0 0 35 35" fill="none" xmlns="http://www.w3.org/2000/svg">
<g id="unnamed 1 [Vectorized]">
<path id="Vector" d="M23.812 8.17992C25.0034 8.01948 26.179 8.74757 26.6297 9.8511C26.8995 10.5091 26.8927 11.248 26.6108 11.9009C26.3146 12.5948 25.8323 13.0908 25.127 13.3711C24.4503 13.6341 23.6971 13.6192 23.0313 13.3296C22.3915 13.0525 21.8871 12.5337 21.6283 11.8863C20.8869 11.9088 20.061 11.8924 19.3139 11.8922L15.0398 11.8903C13.3135 11.89 10.5564 11.5138 9.92821 13.7019C9.5212 15.0978 10.9003 16.2534 12.1641 16.4024C12.8736 16.4861 13.7709 16.437 14.4989 16.4369L19.6406 16.4387C21.9361 16.4367 24.261 16.1885 25.8873 18.2124C27.2412 19.8973 26.9901 22.4227 25.3575 23.8281C23.8815 25.0989 22.241 25.053 20.4288 25.0545L17.181 25.0549L14.5194 25.0539C14.0337 25.0534 13.3789 25.0723 12.9161 25.0225C12.5496 25.9807 11.8303 26.5176 10.8281 26.6807C10.5389 26.7277 10.3646 26.7307 10.0777 26.6909C9.34985 26.5961 8.69121 26.2112 8.25122 25.6238C7.82339 25.0561 7.65417 24.3227 7.75571 23.6222C7.8546 22.9143 8.23341 22.2756 8.80725 21.8494C10.1556 20.857 11.9926 21.3041 12.7857 22.7066C12.843 22.808 12.9118 22.9045 12.9805 22.9987C13.0302 23.0061 13.0714 23.0107 13.1216 23.0107L19.0915 23.0032C20.1092 23.0042 21.6453 23.1072 22.6246 22.9106C25.1599 22.4014 25.4513 19.3855 22.8728 18.6176C22.1399 18.3993 21.0608 18.4893 20.2795 18.4899L15.4468 18.4919C14.1708 18.4921 12.3365 18.574 11.1449 18.2668C10.3408 18.0602 9.60473 17.6471 9.00956 17.0685C6.43785 14.5316 8.16208 10.4263 11.5758 9.9534C12.8308 9.77953 14.0755 9.83897 15.3393 9.83951L21.6201 9.84108C21.9823 8.86737 22.8194 8.33557 23.812 8.17992ZM24.2501 11.896C24.6219 11.8466 24.9384 11.6012 25.079 11.2535C25.2196 10.9058 25.1625 10.5094 24.9295 10.2155C24.6965 9.92161 24.3236 9.77556 23.953 9.83309C23.3886 9.92069 22.9999 10.4462 23.0813 11.0115C23.1627 11.5768 23.6839 11.9712 24.2501 11.896ZM10.5095 25.0571C11.0204 25.0146 11.4243 24.6065 11.4615 24.0952C11.4834 23.7959 11.3749 23.5017 11.164 23.2881C10.9531 23.0745 10.6603 22.9624 10.3607 22.9804C9.98659 23.0029 9.65344 23.2247 9.48842 23.5612C9.3234 23.8978 9.35197 24.297 9.56327 24.6065C9.77457 24.9161 10.136 25.0882 10.5095 25.0571Z" fill="var(--fill-0, #D4FF3F)"/>
</g>
</svg>
