<svg preserveAspectRatio="none" width="100%" height="100%" overflow="visible" style="display: block;" viewBox="0 0 90 80" fill="none" xmlns="http://www.w3.org/2000/svg">
<g id="gps-art">
<path id="Vector" d="M12 15C35 10 30 35 50 32C70 29 75 45 62 55C50 64 30 58 25 68" stroke="var(--stroke-0, #D4FF3F)" stroke-width="2.5" stroke-linecap="round"/>
<path id="Vector_2" d="M12 18C13.6569 18 15 16.6569 15 15C15 13.3431 13.6569 12 12 12C10.3431 12 9 13.3431 9 15C9 16.6569 10.3431 18 12 18Z" fill="var(--fill-0, white)"/>
<path id="Vector_3" d="M25 71C26.6569 71 28 69.6569 28 68C28 66.3431 26.6569 65 25 65C23.3431 65 22 66.3431 22 68C22 69.6569 23.3431 71 25 71Z" fill="var(--fill-0, white)"/>
</g>
</svg>
