<svg preserveAspectRatio="none" width="100%" height="100%" overflow="visible" style="display: block;" viewBox="0 0 26 26" fill="none" xmlns="http://www.w3.org/2000/svg">
<g id="icon">
<path id="Vector" d="M8.66667 4.33333H17.3333V9.75C17.3333 10.8993 16.8768 12.0015 16.0641 12.8141C15.2515 13.6268 14.1493 14.0833 13 14.0833C11.8507 14.0833 10.7485 13.6268 9.93587 12.8141C9.12321 12.0015 8.66667 10.8993 8.66667 9.75V4.33333Z" stroke="var(--stroke-0, #D4FF3F)" stroke-width="1.95" stroke-linejoin="round"/>
<path id="Vector_2" d="M8.66667 6.5H5.41667C5.237 7.00533 5.18518 7.54726 5.26583 8.07748C5.34647 8.60769 5.55708 9.10971 5.87887 9.53876C6.20066 9.96782 6.62363 10.3106 7.11005 10.5364C7.59648 10.7623 8.13125 10.8643 8.66667 10.8333M17.3333 6.5H20.5833C20.763 7.00533 20.8148 7.54726 20.7342 8.07748C20.6535 8.60769 20.4429 9.10971 20.1211 9.53876C19.7993 9.96782 19.3764 10.3106 18.8899 10.5364C18.4035 10.7623 17.8688 10.8643 17.3333 10.8333" stroke="var(--stroke-0, #D4FF3F)" stroke-width="1.95"/>
<path id="Vector_3" d="M13 14.0833V18.4167M8.66667 21.6667H17.3333M10.8333 18.4167H15.1667V21.6667H10.8333V18.4167Z" stroke="var(--stroke-0, #D4FF3F)" stroke-width="1.95" stroke-linejoin="round"/>
</g>
</svg>
