<svg preserveAspectRatio="none" width="100%" height="100%" overflow="visible" style="display: block;" viewBox="0 0 30 28" fill="none" xmlns="http://www.w3.org/2000/svg">
<g id="home1">
<path id="Subtract" d="M14.5488 1.44041C14.8791 1.27343 15.2813 1.30097 15.5879 1.52342L26.8379 9.69041C27.0968 9.87847 27.2499 10.18 27.25 10.5V23.333C27.25 24.24 26.8632 25.0949 26.2002 25.7138C25.5394 26.3306 24.6568 26.666 23.75 26.666H18V18C18 16.8954 17.1045 16 16 16H14C12.8955 16 12 16.8954 12 18V26.666H6.25C5.34315 26.666 4.46064 26.3306 3.7998 25.7138C3.13684 25.0949 2.75 24.24 2.75 23.333V10.5C2.75014 10.18 2.90324 9.87847 3.16211 9.69041L14.4121 1.52342L14.5488 1.44041Z" fill="var(--fill-0, white)"/>
</g>
</svg>
