<svg preserveAspectRatio="none" width="100%" height="100%" overflow="visible" style="display: block;" viewBox="0 0 30 28" fill="none" xmlns="http://www.w3.org/2000/svg">
<g id="free-icon-running-18658099 1 [Vectorized]">
<path id="Vector" d="M22.9084 1.46519C25.1437 1.35447 27.0536 2.95256 27.1791 5.0385C27.3045 7.12445 25.5981 8.91194 23.3635 9.03531C21.1193 9.15923 19.1941 7.55823 19.0682 5.46329C18.9422 3.36835 20.6634 1.57638 22.9084 1.46519ZM23.54 7.24692C24.7219 7.03205 25.4927 5.96302 25.2611 4.86025C25.0294 3.75748 23.883 3.03935 22.7018 3.25695C21.5226 3.47419 20.7548 4.5418 20.9861 5.64264C21.2174 6.74347 22.3603 7.4614 23.54 7.24692Z" fill="var(--fill-0, #D4FF3F)"/>
<path id="Vector_2" d="M13.0394 6.87404C14.3063 6.7674 15.2515 7.09649 16.3939 7.49855C17.7851 7.98822 18.9483 8.60469 19.8696 9.72909C20.2294 10.1683 20.4797 10.6133 20.7703 11.0891C21.6223 12.3833 23.1177 13.1225 24.7387 13.1211C25.3283 13.1507 25.9223 13.0585 26.5044 13.176C27.3403 13.2873 27.3691 14.5631 26.6803 14.7777C26.0706 14.9677 24.5335 14.9054 23.9128 14.8341C23.5627 14.7923 23.2165 14.7259 22.8772 14.6355C21.4303 14.2443 20.1743 13.3954 19.3247 12.2344C19.0775 11.8992 18.815 11.4331 18.5968 11.0695C17.7763 10.0183 17.0144 9.58887 15.7221 9.13688C15.0673 8.90782 14.5127 8.68171 13.7945 8.63783C13.183 8.60619 12.5703 8.67417 11.9838 8.83875C11.1116 9.07822 10.0491 9.60435 9.2441 10.0143C8.38641 10.4569 7.53196 10.905 6.68092 11.3586C6.29013 11.5658 5.49765 12.0771 5.08743 12.1227C4.83302 12.151 4.59756 12.0657 4.40033 11.9164C4.21049 11.7728 4.09143 11.5702 4.0694 11.3426C4.04695 11.1105 4.1233 10.854 4.28555 10.6751C4.5665 10.3653 8.72429 8.25928 9.46005 7.91617C9.91954 7.70092 10.3902 7.50708 10.8703 7.33536C11.6411 7.06542 12.2316 6.9406 13.0394 6.87404Z" fill="var(--fill-0, #D4FF3F)"/>
<path id="Vector_3" d="M16.0313 11.9793C16.8698 11.8726 17.4462 12.582 17.0693 13.2277C16.8062 13.6785 15.9408 14.1989 15.5442 14.5987C15.1646 14.9814 14.6177 15.2886 14.4052 15.7978C14.2742 16.1116 14.3535 16.5905 14.56 16.8728C15.3771 17.7979 16.5982 18.3792 17.5361 19.2045C17.9236 19.5513 18.2403 19.9609 18.4708 20.4134C18.6674 20.788 18.8003 21.1888 18.8647 21.6016C18.9468 22.1218 19.0086 25.6017 18.8695 25.962C18.7564 26.2548 18.5274 26.4035 18.2398 26.5309C17.7727 26.6151 17.2797 26.4179 17.1232 25.9721C17.0075 25.6422 17.0696 25.2683 17.0517 24.9165C16.9934 23.7739 17.2097 22.5227 16.8836 21.4169C16.0875 19.5878 13.2876 19.1363 12.6344 17.1597C11.9669 15.1399 13.2932 14.0836 14.7689 12.8823C15.1188 12.5974 15.5789 12.1109 16.0313 11.9793Z" fill="var(--fill-0, #D4FF3F)"/>
<path id="Vector_4" d="M11.0275 18.9819C11.9821 18.8717 12.5288 19.7458 11.9601 20.4016C11.1574 21.3272 10.3412 22.2358 9.47508 23.11C8.10472 24.4932 5.89093 24.2237 4.01672 24.2263C3.51425 24.2313 3.0172 24.0841 2.84469 23.5928C2.77145 23.3816 2.79048 23.1519 2.89765 22.9538C3.23962 22.3291 3.84434 22.486 4.42222 22.4518C5.20878 22.4053 6.78088 22.576 7.48061 22.2942C8.39537 21.9257 9.33481 20.4865 10.0346 19.8106C10.2554 19.5891 10.4563 19.2889 10.7375 19.0989C10.8273 19.0383 10.9254 19.0116 11.0275 18.9819Z" fill="var(--fill-0, #D4FF3F)"/>
</g>
</svg>
