<svg preserveAspectRatio="none" width="100%" height="100%" overflow="visible" style="display: block;" viewBox="0 0 12.3441 13.4531" fill="none" xmlns="http://www.w3.org/2000/svg">
<g id="vzxcvxafd 1 [Vectorized]">
<path id="Vector" d="M5.72766 2.45609C8.06343 2.23564 10.1354 3.95116 10.3545 6.28705C10.5737 8.62294 8.85697 10.6939 6.52096 10.9118C4.1868 11.1294 2.11783 9.41439 1.89885 7.08035C1.67988 4.7463 3.39375 2.67638 5.72766 2.45609ZM6.25886 10.4064C8.31418 10.3392 9.92668 8.61995 9.8622 6.56454C9.79773 4.50914 8.08066 2.89435 6.02518 2.95607C3.9658 3.01793 2.3473 4.73894 2.41189 6.79823C2.47648 8.85752 4.19966 10.4737 6.25886 10.4064Z" fill="var(--fill-0, black)"/>
<path id="Vector_2" d="M7.74048 7.69824C7.80927 7.70832 8.06194 7.81716 8.02111 7.90499C7.94203 8.07513 7.72602 8.39594 7.59371 8.5262C6.6886 9.41737 5.32231 9.31195 4.54438 8.30092C4.46767 8.17533 4.33931 8.04936 4.30263 7.90546C4.27115 7.78206 4.53161 7.67107 4.60528 7.74539C4.74369 7.88498 4.8337 8.07234 4.99236 8.19786C5.47112 8.60626 6.0559 8.68126 6.65859 8.54669C6.97541 8.47594 7.26818 8.29689 7.48028 8.0484C7.57499 7.93742 7.64761 7.81122 7.74048 7.69824Z" fill="var(--fill-0, black)"/>
<path id="Vector_3" d="M4.56992 5.3187C4.74246 5.28722 4.91858 5.3511 5.03082 5.48586C5.14306 5.62063 5.17402 5.8054 5.11185 5.9694C5.04968 6.13339 4.90401 6.25119 4.73062 6.27768C4.46788 6.31782 4.22159 6.13953 4.17766 5.87739C4.13373 5.61524 4.30844 5.36641 4.56992 5.3187Z" fill="var(--fill-0, black)"/>
<path id="Vector_4" d="M7.39902 5.3187C7.57156 5.28722 7.74768 5.3511 7.85992 5.48586C7.97217 5.62063 8.00312 5.8054 7.94096 5.9694C7.87878 6.13339 7.73311 6.25119 7.55972 6.27768C7.29698 6.31782 7.05069 6.13953 7.00676 5.87739C6.96283 5.61524 7.13754 5.36641 7.39902 5.3187Z" fill="var(--fill-0, black)"/>
</g>
</svg>
