<svg preserveAspectRatio="none" width="100%" height="100%" overflow="visible" style="display: block;" viewBox="0 0 26 26" fill="none" xmlns="http://www.w3.org/2000/svg">
<g id="material-symbols-light:ios-share">
<path id="Vector" d="M7.16733 22.75C6.66828 22.75 6.25192 22.5832 5.91825 22.2495C5.58458 21.9158 5.41739 21.4995 5.41667 21.0004V11.4996C5.41667 11.0012 5.58386 10.5852 5.91825 10.2516C6.25264 9.91792 6.669 9.75072 7.16733 9.75H9.4575V10.8333H7.16733C7.0005 10.8333 6.84739 10.9027 6.708 11.0413C6.56861 11.18 6.49928 11.3331 6.5 11.5007V21.0004C6.5 21.1665 6.56933 21.3193 6.708 21.4587C6.84667 21.5981 6.99942 21.6674 7.16625 21.6667H18.8337C18.9999 21.6667 19.1526 21.5973 19.292 21.4587C19.4314 21.32 19.5007 21.1672 19.5 21.0004V11.4996C19.5 11.3335 19.4307 11.1807 19.292 11.0413C19.1533 10.9019 19.0002 10.8326 18.8327 10.8333H16.5425V9.75H18.8337C19.3328 9.75 19.7492 9.91719 20.0828 10.2516C20.4165 10.586 20.5833 11.0023 20.5833 11.5007V21.0004C20.5833 21.4987 20.4161 21.9151 20.0817 22.2495C19.7474 22.5839 19.3314 22.7507 18.8337 22.75H7.16733ZM12.4583 16.7917V4.9985L10.1833 7.2735L9.41633 6.5L13 2.91633L16.5837 6.5L15.8167 7.2735L13.5417 4.9985V16.7917H12.4583Z" fill="#0D0D0F" stroke="#0D0D0F" stroke-width="0.5" stroke-linejoin="round"/>
</g>
</svg>
