<svg width="21" height="23" viewBox="0 0 21 23" fill="none" xmlns="http://www.w3.org/2000/svg">
<path d="M18.8272 7.66523L6.53052 0.585682C5.86512 0.199961 5.1099 -0.00210213 4.34154 1.64902e-05C3.57318 0.00213511 2.81907 0.20836 2.1558 0.597744C1.49253 0.987129 0.943726 1.5458 0.565139 2.21702C0.186552 2.88823 -0.00833525 3.64808 0.000273317 4.41937V18.6296C0.000273317 19.7887 0.458944 20.9003 1.27538 21.7199C2.09182 22.5395 3.19915 23 4.35377 23C5.1181 22.9987 5.86869 22.796 6.53052 22.4122L18.8272 15.3326C19.488 14.9487 20.0365 14.3972 20.4179 13.7332C20.7993 13.0693 21 12.3164 21 11.55C21 10.7837 20.7993 10.0307 20.4179 9.36683C20.0365 8.70292 19.488 8.15136 18.8272 7.76746V7.66523ZM17.5543 13.0196L5.25756 20.2014C4.98195 20.3582 4.67056 20.4406 4.35377 20.4406C4.03697 20.4406 3.72558 20.3582 3.44997 20.2014C3.17514 20.0421 2.94692 19.813 2.78827 19.5371C2.62962 19.2612 2.54612 18.9482 2.54618 18.6296V4.36826C2.54612 4.04967 2.62962 3.73669 2.78827 3.46077C2.94692 3.18486 3.17514 2.95574 3.44997 2.79644C3.72652 2.64152 4.03711 2.55808 4.35377 2.55364C4.67014 2.56016 4.98024 2.64347 5.25756 2.79644L17.5543 9.92711C17.8292 10.0863 18.0575 10.3154 18.2163 10.5913C18.375 10.8673 18.4586 11.1803 18.4586 11.4989C18.4586 11.8176 18.375 12.1306 18.2163 12.4065C18.0575 12.6824 17.8292 12.9115 17.5543 13.0707V13.0196Z" fill="white"/>
</svg>
