<svg width="23" height="23" viewBox="0 0 23 23" fill="none" xmlns="http://www.w3.org/2000/svg">
<path d="M11.4998 23C17.78 23 23 17.7912 23 11.5C23 5.21988 17.7685 0 11.4882 0C5.19738 0 0 5.21988 0 11.5C0 17.7912 5.20845 23 11.4998 23ZM11.5002 21.0835C6.17778 21.0835 1.92665 16.8214 1.92665 11.5C1.92665 6.1892 6.16624 1.91651 11.4882 1.91651C16.7986 1.91651 21.0714 6.18968 21.083 11.5C21.094 16.8219 16.8097 21.0835 11.4993 21.0835M7.6431 16.2807C7.89132 16.2807 8.11694 16.1792 8.28579 15.9988L11.4882 12.7854L14.6902 15.9988C14.859 16.1676 15.0846 16.2807 15.3444 16.2807C15.8399 16.2807 16.2459 15.8631 16.2459 15.3672C16.2459 15.1079 16.1449 14.8938 15.9756 14.7245L12.7731 11.5226L15.9866 8.29813C16.167 8.10619 16.2575 7.91473 16.2575 7.66651C16.2581 7.54788 16.2352 7.4303 16.1901 7.32058C16.145 7.21086 16.0786 7.11118 15.9947 7.0273C15.9108 6.94341 15.8111 6.877 15.7014 6.8319C15.5917 6.78679 15.4741 6.7639 15.3555 6.76454C15.1183 6.76454 14.9153 6.84343 14.7238 7.03537L11.4877 10.2599L8.26318 7.04643C8.09433 6.86604 7.89132 6.78715 7.6431 6.78715C7.13606 6.78715 6.74111 7.17054 6.74111 7.67805C6.74111 7.92579 6.83155 8.13986 7.01194 8.30919L10.2139 11.5226L7.01194 14.736C6.83155 14.8938 6.74111 15.1189 6.74111 15.3672C6.74111 15.8631 7.13558 16.2807 7.6431 16.2807Z" fill="white"/>
</svg>
