<svg width="23" height="23" viewBox="0 0 23 23" fill="none" xmlns="http://www.w3.org/2000/svg">
<path d="M11.5 23C5.15857 23 0 17.8414 0 11.5C0 5.15857 5.15857 0 11.5 0C17.8414 0 23 5.15857 23 11.5C23 17.8414 17.8414 23 11.5 23ZM11.5 1.64286C6.06214 1.64286 1.64286 6.06214 1.64286 11.5C1.64286 16.9379 6.06214 21.3571 11.5 21.3571C16.9379 21.3571 21.3571 16.9379 21.3571 11.5C21.3571 6.06214 16.9379 1.64286 11.5 1.64286Z" fill="#d4ff3f"/>
<path d="M11.4992 17.25C11.0392 17.25 10.6777 16.8886 10.6777 16.4286V6.57143C10.6777 6.11143 11.0392 5.75 11.4992 5.75C11.9592 5.75 12.3206 6.11143 12.3206 6.57143V16.4286C12.3206 16.8886 11.9592 17.25 11.4992 17.25Z" fill="#d4ff3f"/>
<path d="M16.4286 12.3216H6.57143C6.11143 12.3216 5.75 11.9601 5.75 11.5001C5.75 11.0401 6.11143 10.6787 6.57143 10.6787H16.4286C16.8886 10.6787 17.25 11.0401 17.25 11.5001C17.25 11.9601 16.8886 12.3216 16.4286 12.3216Z" fill="#d4ff3f"/>
</svg>
