<svg width="20" height="23" viewBox="0 0 20 23" fill="none" xmlns="http://www.w3.org/2000/svg">
<path d="M13.6972 0.932544C14.2795 0.361094 15.0615 0.0283252 15.8847 0.0017265C16.7078 -0.0248722 17.5104 0.256691 18.1298 0.789311L18.2855 0.932544L19.05 1.68266C19.6322 2.25392 19.9711 3.02097 19.9982 3.82833C20.0253 4.6357 19.7386 5.42297 19.196 6.03058L19.05 6.18337L6.92568 18.0802C6.75425 18.2484 6.54659 18.3767 6.31795 18.4558L6.14276 18.5057L1.32632 19.5964C1.15756 19.6349 0.981844 19.633 0.813961 19.591C0.646077 19.5489 0.490948 19.4679 0.361635 19.3548C0.232323 19.2416 0.132615 19.0997 0.0709069 18.9408C0.00919891 18.782 -0.0127019 18.6109 0.00704911 18.442L0.0286766 18.3221L1.13925 13.5954C1.19411 13.3636 1.30127 13.1468 1.45285 12.9609L1.57288 12.8283L13.6972 0.932544ZM12.9327 4.68313L3.21116 14.2214L2.52341 17.1476L5.50584 16.4718L15.2274 6.93348L12.9327 4.68313ZM16.7564 2.43278C16.5702 2.2501 16.3225 2.14036 16.0597 2.12415C15.7969 2.10794 15.5371 2.18636 15.329 2.34472L15.2274 2.43278L14.4618 3.1829L16.7564 5.43325L17.521 4.68313C17.7072 4.50044 17.819 4.25736 17.8355 3.99952C17.8521 3.74167 17.7721 3.48677 17.6107 3.28263L17.521 3.1829L16.7564 2.43278Z" fill="white"/>
</svg>
