<svg preserveAspectRatio="none" width="100%" height="100%" overflow="visible" style="display: block;" viewBox="0 0 30 28" fill="none" xmlns="http://www.w3.org/2000/svg">
<g id="home">
<path id="Vector" d="M12 25.5V18.5C12 17.3954 12.8954 16.5 14 16.5H16C17.1046 16.5 18 17.3954 18 18.5V25.5" stroke="var(--stroke-0, white)" stroke-width="2" stroke-linecap="round" stroke-linejoin="round"/>
<path id="Subtract" d="M14.5488 1.44124C14.8792 1.27412 15.2812 1.30163 15.5879 1.52425L26.8379 9.69124C27.0968 9.87939 27.25 10.1807 27.25 10.5008V23.3338C27.2499 24.2408 26.8632 25.0958 26.2002 25.7147C25.5394 26.3314 24.6568 26.6668 23.75 26.6668H17V24.6668H23.75C24.169 24.6668 24.5581 24.5109 24.835 24.2528C25.1094 23.9966 25.2499 23.6642 25.25 23.3338V11.0096L15 3.56917L4.75 11.0096V23.3338C4.75009 23.6642 4.89061 23.9966 5.16504 24.2528C5.44186 24.5109 5.831 24.6668 6.25 24.6668H13V26.6668H6.25C5.34322 26.6668 4.46062 26.3314 3.7998 25.7147C3.13679 25.0958 2.75009 24.2408 2.75 23.3338V10.5008C2.75 10.1807 2.90322 9.87939 3.16211 9.69124L14.4121 1.52425L14.5488 1.44124Z" fill="var(--fill-0, white)"/>
</g>
</svg>
