<svg width="42" height="42" viewBox="0 0 42 42" fill="none" xmlns="http://www.w3.org/2000/svg">
<rect width="41.3696" height="41.3696" rx="8.61866" fill="#D4FF3F"/>
<rect x="0.178317" y="0.178317" width="41.0129" height="41.0129" rx="8.44034" stroke="white" stroke-opacity="0.34" stroke-width="0.356634"/>
<path d="M5.43791 25.8051L4.27539 14.9795H6.3913L6.98793 21.8131L7.59687 14.9795H9.61436L10.1925 21.8131L10.7707 14.9795H12.9112L11.7303 25.8051H9.13459L8.59332 20.5953L8.07664 25.8051H5.43791Z" fill="#0E0D16"/>
<path d="M31.7803 25.8051V14.9795H34.0069L35.0033 20.1647V14.9795H37.0946V25.8051H34.9787L33.8962 20.3923V25.8051H31.7803Z" fill="#0E0D16"/>
<path d="M28.3167 25.9035C27.4145 25.9035 26.7502 25.6513 26.3238 25.1469C25.8973 24.6384 25.6841 23.8921 25.6841 22.908V14.9795H27.7877V22.8219C27.7877 23.0023 27.7979 23.1766 27.8184 23.3447C27.8389 23.5087 27.8861 23.644 27.9599 23.7507C28.0337 23.8573 28.1526 23.9106 28.3167 23.9106C28.4848 23.9106 28.6058 23.8593 28.6796 23.7568C28.7534 23.6502 28.7985 23.5128 28.8149 23.3447C28.8354 23.1766 28.8456 23.0023 28.8456 22.8219V14.9795H30.9492V22.908C30.9492 23.8921 30.736 24.6384 30.3096 25.1469C29.8831 25.6513 29.2188 25.9035 28.3167 25.9035Z" fill="#0E0D16"/>
<path d="M19.811 25.8051V14.9795H23.1325C23.6861 14.9795 24.1044 15.1066 24.3873 15.3608C24.6702 15.611 24.8589 15.9636 24.9532 16.4188C25.0516 16.8699 25.1008 17.4009 25.1008 18.0119C25.1008 18.6024 25.0249 19.0739 24.8732 19.4266C24.7256 19.7792 24.4447 20.0232 24.0305 20.1585C24.3709 20.2283 24.6087 20.3984 24.744 20.6691C24.8835 20.9356 24.9532 21.2821 24.9532 21.7086V25.8051H22.8188V21.5671C22.8188 21.2514 22.7532 21.0566 22.622 20.9828C22.4949 20.9049 22.2878 20.8659 22.0008 20.8659V25.8051H19.811ZM22.0131 18.9899H22.5359C22.8352 18.9899 22.9849 18.6639 22.9849 18.0119C22.9849 17.5895 22.9521 17.3127 22.8865 17.1815C22.8209 17.0503 22.6979 16.9847 22.5174 16.9847H22.0131V18.9899Z" fill="#0E0D16"/>
<rect x="15.1328" y="15.1758" width="2.23072" height="1.83707" fill="#0E0D16"/>
<rect x="15.1328" y="19.6367" width="2.23072" height="1.83707" fill="#0E0D16"/>
<rect x="15.1328" y="23.9678" width="2.23072" height="1.83707" fill="#0E0D16"/>
</svg>
